<svg xmlns="http://www.w3.org/2000/svg" version="1.1" width="256" height="256"><rect x="0" y="0" width="256" height="256" style="fill:#ffffff;shape-rendering:crispEdges;"></rect><g class="anchors"><g data-position="top-left" style="shape-rendering:crispEdges;"><path class="anchor-outer" fill="#000000" transform="scale(9.481481481481481, 9.481481481481481)" d="M1 1 h7 v7 h-7 v-7z m1 1 v5 h5 v-5 h-5 z"></path> <path class="anchor-inner" fill="#000000" transform="scale(9.481481481481481, 9.481481481481481)" d="M3 3 h3 v3 h-3 v-3 z"></path></g><g data-position="top-right" style="shape-rendering:crispEdges;"><path class="anchor-outer" fill="#000000" transform="scale(9.481481481481481, 9.481481481481481)" d="M19 1 h7 v7 h-7 v-7z m1 1 v5 h5 v-5 h-5 z"></path> <path class="anchor-inner" fill="#000000" transform="scale(9.481481481481481, 9.481481481481481)" d="M21 3 h3 v3 h-3 v-3 z"></path></g><g data-position="bottom-left" style="shape-rendering:crispEdges;"><path class="anchor-outer" fill="#000000" transform="scale(9.481481481481481, 9.481481481481481)" d="M1 19 h7 v7 h-7 v-7z m1 1 v5 h5 v-5 h-5 z"></path> <path class="anchor-inner" fill="#000000" transform="scale(9.481481481481481, 9.481481481481481)" d="M3 21 h3 v3 h-3 v-3 z"></path></g></g><rect class="module" x="85.33333333333333" y="9.481481481481481" width="9.481481481481481" height="9.481481481481481" style="fill:#000000;shape-rendering:crispEdges;"></rect><rect class="module" x="94.81481481481481" y="9.481481481481481" width="9.481481481481481" height="9.481481481481481" style="fill:#000000;shape-rendering:crispEdges;"></rect><rect class="module" x="142.22222222222223" y="9.481481481481481" width="9.481481481481481" height="9.481481481481481" style="fill:#000000;shape-rendering:crispEdges;"></rect><rect class="module" x="161.18518518518516" y="9.481481481481481" width="9.481481481481481" height="9.481481481481481" style="fill:#000000;shape-rendering:crispEdges;"></rect><rect class="module" x="94.81481481481481" y="18.962962962962962" width="9.481481481481481" height="9.481481481481481" style="fill:#000000;shape-rendering:crispEdges;"></rect><rect class="module" x="113.77777777777777" y="18.962962962962962" width="9.481481481481481" height="9.481481481481481" style="fill:#000000;shape-rendering:crispEdges;"></rect><rect class="module" x="151.7037037037037" y="18.962962962962962" width="9.481481481481481" height="9.481481481481481" style="fill:#000000;shape-rendering:crispEdges;"></rect><rect class="module" x="85.33333333333333" y="28.444444444444443" width="9.481481481481481" height="9.481481481481481" style="fill:#000000;shape-rendering:crispEdges;"></rect><rect class="module" x="94.81481481481481" y="28.444444444444443" width="9.481481481481481" height="9.481481481481481" style="fill:#000000;shape-rendering:crispEdges;"></rect><rect class="module" x="104.29629629629629" y="28.444444444444443" width="9.481481481481481" height="9.481481481481481" style="fill:#000000;shape-rendering:crispEdges;"></rect><rect class="module" x="113.77777777777777" y="28.444444444444443" width="9.481481481481481" height="9.481481481481481" style="fill:#000000;shape-rendering:crispEdges;"></rect><rect class="module" x="132.74074074074073" y="28.444444444444443" width="9.481481481481481" height="9.481481481481481" style="fill:#000000;shape-rendering:crispEdges;"></rect><rect class="module" x="94.81481481481481" y="37.925925925925924" width="9.481481481481481" height="9.481481481481481" style="fill:#000000;shape-rendering:crispEdges;"></rect><rect class="module" x="104.29629629629629" y="37.925925925925924" width="9.481481481481481" height="9.481481481481481" style="fill:#000000;shape-rendering:crispEdges;"></rect><rect class="module" x="85.33333333333333" y="47.407407407407405" width="9.481481481481481" height="9.481481481481481" style="fill:#000000;shape-rendering:crispEdges;"></rect><rect class="module" x="123.25925925925925" y="47.407407407407405" width="9.481481481481481" height="9.481481481481481" style="fill:#000000;shape-rendering:crispEdges;"></rect><rect class="module" x="132.74074074074073" y="47.407407407407405" width="9.481481481481481" height="9.481481481481481" style="fill:#000000;shape-rendering:crispEdges;"></rect><rect class="module" x="142.22222222222223" y="47.407407407407405" width="9.481481481481481" height="9.481481481481481" style="fill:#000000;shape-rendering:crispEdges;"></rect><rect class="module" x="151.7037037037037" y="47.407407407407405" width="9.481481481481481" height="9.481481481481481" style="fill:#000000;shape-rendering:crispEdges;"></rect><rect class="module" x="113.77777777777777" y="56.888888888888886" width="9.481481481481481" height="9.481481481481481" style="fill:#000000;shape-rendering:crispEdges;"></rect><rect class="module" x="123.25925925925925" y="56.888888888888886" width="9.481481481481481" height="9.481481481481481" style="fill:#000000;shape-rendering:crispEdges;"></rect><rect class="module" x="142.22222222222223" y="56.888888888888886" width="9.481481481481481" height="9.481481481481481" style="fill:#000000;shape-rendering:crispEdges;"></rect><rect class="module" x="151.7037037037037" y="56.888888888888886" width="9.481481481481481" height="9.481481481481481" style="fill:#000000;shape-rendering:crispEdges;"></rect><rect class="module" x="85.33333333333333" y="66.37037037037037" width="9.481481481481481" height="9.481481481481481" style="fill:#000000;shape-rendering:crispEdges;"></rect><rect class="module" x="104.29629629629629" y="66.37037037037037" width="9.481481481481481" height="9.481481481481481" style="fill:#000000;shape-rendering:crispEdges;"></rect><rect class="module" x="123.25925925925925" y="66.37037037037037" width="9.481481481481481" height="9.481481481481481" style="fill:#000000;shape-rendering:crispEdges;"></rect><rect class="module" x="142.22222222222223" y="66.37037037037037" width="9.481481481481481" height="9.481481481481481" style="fill:#000000;shape-rendering:crispEdges;"></rect><rect class="module" x="161.18518518518516" y="66.37037037037037" width="9.481481481481481" height="9.481481481481481" style="fill:#000000;shape-rendering:crispEdges;"></rect><rect class="module" x="94.81481481481481" y="75.85185185185185" width="9.481481481481481" height="9.481481481481481" style="fill:#000000;shape-rendering:crispEdges;"></rect><rect class="module" x="113.77777777777777" y="75.85185185185185" width="9.481481481481481" height="9.481481481481481" style="fill:#000000;shape-rendering:crispEdges;"></rect><rect class="module" x="161.18518518518516" y="75.85185185185185" width="9.481481481481481" height="9.481481481481481" style="fill:#000000;shape-rendering:crispEdges;"></rect><rect class="module" x="18.962962962962962" y="85.33333333333333" width="9.481481481481481" height="9.481481481481481" style="fill:#000000;shape-rendering:crispEdges;"></rect><rect class="module" x="47.407407407407405" y="85.33333333333333" width="9.481481481481481" height="9.481481481481481" style="fill:#000000;shape-rendering:crispEdges;"></rect><rect class="module" x="66.37037037037037" y="85.33333333333333" width="9.481481481481481" height="9.481481481481481" style="fill:#000000;shape-rendering:crispEdges;"></rect><rect class="module" x="104.29629629629629" y="85.33333333333333" width="9.481481481481481" height="9.481481481481481" style="fill:#000000;shape-rendering:crispEdges;"></rect><rect class="module" x="123.25925925925925" y="85.33333333333333" width="9.481481481481481" height="9.481481481481481" style="fill:#000000;shape-rendering:crispEdges;"></rect><rect class="module" x="170.66666666666663" y="85.33333333333333" width="9.481481481481481" height="9.481481481481481" style="fill:#000000;shape-rendering:crispEdges;"></rect><rect class="module" x="199.1111111111111" y="85.33333333333333" width="9.481481481481481" height="9.481481481481481" style="fill:#000000;shape-rendering:crispEdges;"></rect><rect class="module" x="218.07407407407408" y="85.33333333333333" width="9.481481481481481" height="9.481481481481481" style="fill:#000000;shape-rendering:crispEdges;"></rect><rect class="module" x="237.037037037037" y="85.33333333333333" width="9.481481481481481" height="9.481481481481481" style="fill:#000000;shape-rendering:crispEdges;"></rect><rect class="module" x="18.962962962962962" y="94.81481481481481" width="9.481481481481481" height="9.481481481481481" style="fill:#000000;shape-rendering:crispEdges;"></rect><rect class="module" x="37.925925925925924" y="94.81481481481481" width="9.481481481481481" height="9.481481481481481" style="fill:#000000;shape-rendering:crispEdges;"></rect><rect class="module" x="56.888888888888886" y="94.81481481481481" width="9.481481481481481" height="9.481481481481481" style="fill:#000000;shape-rendering:crispEdges;"></rect><rect class="module" x="75.85185185185185" y="94.81481481481481" width="9.481481481481481" height="9.481481481481481" style="fill:#000000;shape-rendering:crispEdges;"></rect><rect class="module" x="85.33333333333333" y="94.81481481481481" width="9.481481481481481" height="9.481481481481481" style="fill:#000000;shape-rendering:crispEdges;"></rect><rect class="module" x="94.81481481481481" y="94.81481481481481" width="9.481481481481481" height="9.481481481481481" style="fill:#000000;shape-rendering:crispEdges;"></rect><rect class="module" x="104.29629629629629" y="94.81481481481481" width="9.481481481481481" height="9.481481481481481" style="fill:#000000;shape-rendering:crispEdges;"></rect><rect class="module" x="123.25925925925925" y="94.81481481481481" width="9.481481481481481" height="9.481481481481481" style="fill:#000000;shape-rendering:crispEdges;"></rect><rect class="module" x="132.74074074074073" y="94.81481481481481" width="9.481481481481481" height="9.481481481481481" style="fill:#000000;shape-rendering:crispEdges;"></rect><rect class="module" x="151.7037037037037" y="94.81481481481481" width="9.481481481481481" height="9.481481481481481" style="fill:#000000;shape-rendering:crispEdges;"></rect><rect class="module" x="161.18518518518516" y="94.81481481481481" width="9.481481481481481" height="9.481481481481481" style="fill:#000000;shape-rendering:crispEdges;"></rect><rect class="module" x="170.66666666666663" y="94.81481481481481" width="9.481481481481481" height="9.481481481481481" style="fill:#000000;shape-rendering:crispEdges;"></rect><rect class="module" x="180.14814814814815" y="94.81481481481481" width="9.481481481481481" height="9.481481481481481" style="fill:#000000;shape-rendering:crispEdges;"></rect><rect class="module" x="189.62962962962962" y="94.81481481481481" width="9.481481481481481" height="9.481481481481481" style="fill:#000000;shape-rendering:crispEdges;"></rect><rect class="module" x="227.55555555555554" y="94.81481481481481" width="9.481481481481481" height="9.481481481481481" style="fill:#000000;shape-rendering:crispEdges;"></rect><rect class="module" x="9.481481481481481" y="104.29629629629629" width="9.481481481481481" height="9.481481481481481" style="fill:#000000;shape-rendering:crispEdges;"></rect><rect class="module" x="18.962962962962962" y="104.29629629629629" width="9.481481481481481" height="9.481481481481481" style="fill:#000000;shape-rendering:crispEdges;"></rect><rect class="module" x="28.444444444444443" y="104.29629629629629" width="9.481481481481481" height="9.481481481481481" style="fill:#000000;shape-rendering:crispEdges;"></rect><rect class="module" x="56.888888888888886" y="104.29629629629629" width="9.481481481481481" height="9.481481481481481" style="fill:#000000;shape-rendering:crispEdges;"></rect><rect class="module" x="66.37037037037037" y="104.29629629629629" width="9.481481481481481" height="9.481481481481481" style="fill:#000000;shape-rendering:crispEdges;"></rect><rect class="module" x="85.33333333333333" y="104.29629629629629" width="9.481481481481481" height="9.481481481481481" style="fill:#000000;shape-rendering:crispEdges;"></rect><rect class="module" x="94.81481481481481" y="104.29629629629629" width="9.481481481481481" height="9.481481481481481" style="fill:#000000;shape-rendering:crispEdges;"></rect><rect class="module" x="123.25925925925925" y="104.29629629629629" width="9.481481481481481" height="9.481481481481481" style="fill:#000000;shape-rendering:crispEdges;"></rect><rect class="module" x="132.74074074074073" y="104.29629629629629" width="9.481481481481481" height="9.481481481481481" style="fill:#000000;shape-rendering:crispEdges;"></rect><rect class="module" x="161.18518518518516" y="104.29629629629629" width="9.481481481481481" height="9.481481481481481" style="fill:#000000;shape-rendering:crispEdges;"></rect><rect class="module" x="180.14814814814815" y="104.29629629629629" width="9.481481481481481" height="9.481481481481481" style="fill:#000000;shape-rendering:crispEdges;"></rect><rect class="module" x="189.62962962962962" y="104.29629629629629" width="9.481481481481481" height="9.481481481481481" style="fill:#000000;shape-rendering:crispEdges;"></rect><rect class="module" x="28.444444444444443" y="113.77777777777777" width="9.481481481481481" height="9.481481481481481" style="fill:#000000;shape-rendering:crispEdges;"></rect><rect class="module" x="47.407407407407405" y="113.77777777777777" width="9.481481481481481" height="9.481481481481481" style="fill:#000000;shape-rendering:crispEdges;"></rect><rect class="module" x="56.888888888888886" y="113.77777777777777" width="9.481481481481481" height="9.481481481481481" style="fill:#000000;shape-rendering:crispEdges;"></rect><rect class="module" x="113.77777777777777" y="113.77777777777777" width="9.481481481481481" height="9.481481481481481" style="fill:#000000;shape-rendering:crispEdges;"></rect><rect class="module" x="123.25925925925925" y="113.77777777777777" width="9.481481481481481" height="9.481481481481481" style="fill:#000000;shape-rendering:crispEdges;"></rect><rect class="module" x="132.74074074074073" y="113.77777777777777" width="9.481481481481481" height="9.481481481481481" style="fill:#000000;shape-rendering:crispEdges;"></rect><rect class="module" x="151.7037037037037" y="113.77777777777777" width="9.481481481481481" height="9.481481481481481" style="fill:#000000;shape-rendering:crispEdges;"></rect><rect class="module" x="170.66666666666663" y="113.77777777777777" width="9.481481481481481" height="9.481481481481481" style="fill:#000000;shape-rendering:crispEdges;"></rect><rect class="module" x="180.14814814814815" y="113.77777777777777" width="9.481481481481481" height="9.481481481481481" style="fill:#000000;shape-rendering:crispEdges;"></rect><rect class="module" x="199.1111111111111" y="113.77777777777777" width="9.481481481481481" height="9.481481481481481" style="fill:#000000;shape-rendering:crispEdges;"></rect><rect class="module" x="208.59259259259255" y="113.77777777777777" width="9.481481481481481" height="9.481481481481481" style="fill:#000000;shape-rendering:crispEdges;"></rect><rect class="module" x="227.55555555555554" y="113.77777777777777" width="9.481481481481481" height="9.481481481481481" style="fill:#000000;shape-rendering:crispEdges;"></rect><rect class="module" x="9.481481481481481" y="123.25925925925925" width="9.481481481481481" height="9.481481481481481" style="fill:#000000;shape-rendering:crispEdges;"></rect><rect class="module" x="18.962962962962962" y="123.25925925925925" width="9.481481481481481" height="9.481481481481481" style="fill:#000000;shape-rendering:crispEdges;"></rect><rect class="module" x="47.407407407407405" y="123.25925925925925" width="9.481481481481481" height="9.481481481481481" style="fill:#000000;shape-rendering:crispEdges;"></rect><rect class="module" x="66.37037037037037" y="123.25925925925925" width="9.481481481481481" height="9.481481481481481" style="fill:#000000;shape-rendering:crispEdges;"></rect><rect class="module" x="161.18518518518516" y="123.25925925925925" width="9.481481481481481" height="9.481481481481481" style="fill:#000000;shape-rendering:crispEdges;"></rect><rect class="module" x="170.66666666666663" y="123.25925925925925" width="9.481481481481481" height="9.481481481481481" style="fill:#000000;shape-rendering:crispEdges;"></rect><rect class="module" x="180.14814814814815" y="123.25925925925925" width="9.481481481481481" height="9.481481481481481" style="fill:#000000;shape-rendering:crispEdges;"></rect><rect class="module" x="189.62962962962962" y="123.25925925925925" width="9.481481481481481" height="9.481481481481481" style="fill:#000000;shape-rendering:crispEdges;"></rect><rect class="module" x="237.037037037037" y="123.25925925925925" width="9.481481481481481" height="9.481481481481481" style="fill:#000000;shape-rendering:crispEdges;"></rect><rect class="module" x="18.962962962962962" y="132.74074074074073" width="9.481481481481481" height="9.481481481481481" style="fill:#000000;shape-rendering:crispEdges;"></rect><rect class="module" x="47.407407407407405" y="132.74074074074073" width="9.481481481481481" height="9.481481481481481" style="fill:#000000;shape-rendering:crispEdges;"></rect><rect class="module" x="75.85185185185185" y="132.74074074074073" width="9.481481481481481" height="9.481481481481481" style="fill:#000000;shape-rendering:crispEdges;"></rect><rect class="module" x="85.33333333333333" y="132.74074074074073" width="9.481481481481481" height="9.481481481481481" style="fill:#000000;shape-rendering:crispEdges;"></rect><rect class="module" x="94.81481481481481" y="132.74074074074073" width="9.481481481481481" height="9.481481481481481" style="fill:#000000;shape-rendering:crispEdges;"></rect><rect class="module" x="104.29629629629629" y="132.74074074074073" width="9.481481481481481" height="9.481481481481481" style="fill:#000000;shape-rendering:crispEdges;"></rect><rect class="module" x="113.77777777777777" y="132.74074074074073" width="9.481481481481481" height="9.481481481481481" style="fill:#000000;shape-rendering:crispEdges;"></rect><rect class="module" x="123.25925925925925" y="132.74074074074073" width="9.481481481481481" height="9.481481481481481" style="fill:#000000;shape-rendering:crispEdges;"></rect><rect class="module" x="142.22222222222223" y="132.74074074074073" width="9.481481481481481" height="9.481481481481481" style="fill:#000000;shape-rendering:crispEdges;"></rect><rect class="module" x="151.7037037037037" y="132.74074074074073" width="9.481481481481481" height="9.481481481481481" style="fill:#000000;shape-rendering:crispEdges;"></rect><rect class="module" x="161.18518518518516" y="132.74074074074073" width="9.481481481481481" height="9.481481481481481" style="fill:#000000;shape-rendering:crispEdges;"></rect><rect class="module" x="189.62962962962962" y="132.74074074074073" width="9.481481481481481" height="9.481481481481481" style="fill:#000000;shape-rendering:crispEdges;"></rect><rect class="module" x="218.07407407407408" y="132.74074074074073" width="9.481481481481481" height="9.481481481481481" style="fill:#000000;shape-rendering:crispEdges;"></rect><rect class="module" x="9.481481481481481" y="142.22222222222223" width="9.481481481481481" height="9.481481481481481" style="fill:#000000;shape-rendering:crispEdges;"></rect><rect class="module" x="18.962962962962962" y="142.22222222222223" width="9.481481481481481" height="9.481481481481481" style="fill:#000000;shape-rendering:crispEdges;"></rect><rect class="module" x="47.407407407407405" y="142.22222222222223" width="9.481481481481481" height="9.481481481481481" style="fill:#000000;shape-rendering:crispEdges;"></rect><rect class="module" x="56.888888888888886" y="142.22222222222223" width="9.481481481481481" height="9.481481481481481" style="fill:#000000;shape-rendering:crispEdges;"></rect><rect class="module" x="66.37037037037037" y="142.22222222222223" width="9.481481481481481" height="9.481481481481481" style="fill:#000000;shape-rendering:crispEdges;"></rect><rect class="module" x="104.29629629629629" y="142.22222222222223" width="9.481481481481481" height="9.481481481481481" style="fill:#000000;shape-rendering:crispEdges;"></rect><rect class="module" x="113.77777777777777" y="142.22222222222223" width="9.481481481481481" height="9.481481481481481" style="fill:#000000;shape-rendering:crispEdges;"></rect><rect class="module" x="151.7037037037037" y="142.22222222222223" width="9.481481481481481" height="9.481481481481481" style="fill:#000000;shape-rendering:crispEdges;"></rect><rect class="module" x="189.62962962962962" y="142.22222222222223" width="9.481481481481481" height="9.481481481481481" style="fill:#000000;shape-rendering:crispEdges;"></rect><rect class="module" x="199.1111111111111" y="142.22222222222223" width="9.481481481481481" height="9.481481481481481" style="fill:#000000;shape-rendering:crispEdges;"></rect><rect class="module" x="9.481481481481481" y="151.7037037037037" width="9.481481481481481" height="9.481481481481481" style="fill:#000000;shape-rendering:crispEdges;"></rect><rect class="module" x="18.962962962962962" y="151.7037037037037" width="9.481481481481481" height="9.481481481481481" style="fill:#000000;shape-rendering:crispEdges;"></rect><rect class="module" x="28.444444444444443" y="151.7037037037037" width="9.481481481481481" height="9.481481481481481" style="fill:#000000;shape-rendering:crispEdges;"></rect><rect class="module" x="37.925925925925924" y="151.7037037037037" width="9.481481481481481" height="9.481481481481481" style="fill:#000000;shape-rendering:crispEdges;"></rect><rect class="module" x="47.407407407407405" y="151.7037037037037" width="9.481481481481481" height="9.481481481481481" style="fill:#000000;shape-rendering:crispEdges;"></rect><rect class="module" x="56.888888888888886" y="151.7037037037037" width="9.481481481481481" height="9.481481481481481" style="fill:#000000;shape-rendering:crispEdges;"></rect><rect class="module" x="113.77777777777777" y="151.7037037037037" width="9.481481481481481" height="9.481481481481481" style="fill:#000000;shape-rendering:crispEdges;"></rect><rect class="module" x="180.14814814814815" y="151.7037037037037" width="9.481481481481481" height="9.481481481481481" style="fill:#000000;shape-rendering:crispEdges;"></rect><rect class="module" x="218.07407407407408" y="151.7037037037037" width="9.481481481481481" height="9.481481481481481" style="fill:#000000;shape-rendering:crispEdges;"></rect><rect class="module" x="227.55555555555554" y="151.7037037037037" width="9.481481481481481" height="9.481481481481481" style="fill:#000000;shape-rendering:crispEdges;"></rect><rect class="module" x="237.037037037037" y="151.7037037037037" width="9.481481481481481" height="9.481481481481481" style="fill:#000000;shape-rendering:crispEdges;"></rect><rect class="module" x="37.925925925925924" y="161.18518518518516" width="9.481481481481481" height="9.481481481481481" style="fill:#000000;shape-rendering:crispEdges;"></rect><rect class="module" x="66.37037037037037" y="161.18518518518516" width="9.481481481481481" height="9.481481481481481" style="fill:#000000;shape-rendering:crispEdges;"></rect><rect class="module" x="94.81481481481481" y="161.18518518518516" width="9.481481481481481" height="9.481481481481481" style="fill:#000000;shape-rendering:crispEdges;"></rect><rect class="module" x="113.77777777777777" y="161.18518518518516" width="9.481481481481481" height="9.481481481481481" style="fill:#000000;shape-rendering:crispEdges;"></rect><rect class="module" x="123.25925925925925" y="161.18518518518516" width="9.481481481481481" height="9.481481481481481" style="fill:#000000;shape-rendering:crispEdges;"></rect><rect class="module" x="132.74074074074073" y="161.18518518518516" width="9.481481481481481" height="9.481481481481481" style="fill:#000000;shape-rendering:crispEdges;"></rect><rect class="module" x="161.18518518518516" y="161.18518518518516" width="9.481481481481481" height="9.481481481481481" style="fill:#000000;shape-rendering:crispEdges;"></rect><rect class="module" x="170.66666666666663" y="161.18518518518516" width="9.481481481481481" height="9.481481481481481" style="fill:#000000;shape-rendering:crispEdges;"></rect><rect class="module" x="180.14814814814815" y="161.18518518518516" width="9.481481481481481" height="9.481481481481481" style="fill:#000000;shape-rendering:crispEdges;"></rect><rect class="module" x="189.62962962962962" y="161.18518518518516" width="9.481481481481481" height="9.481481481481481" style="fill:#000000;shape-rendering:crispEdges;"></rect><rect class="module" x="199.1111111111111" y="161.18518518518516" width="9.481481481481481" height="9.481481481481481" style="fill:#000000;shape-rendering:crispEdges;"></rect><rect class="module" x="218.07407407407408" y="161.18518518518516" width="9.481481481481481" height="9.481481481481481" style="fill:#000000;shape-rendering:crispEdges;"></rect><rect class="module" x="227.55555555555554" y="161.18518518518516" width="9.481481481481481" height="9.481481481481481" style="fill:#000000;shape-rendering:crispEdges;"></rect><rect class="module" x="237.037037037037" y="161.18518518518516" width="9.481481481481481" height="9.481481481481481" style="fill:#000000;shape-rendering:crispEdges;"></rect><rect class="module" x="104.29629629629629" y="170.66666666666663" width="9.481481481481481" height="9.481481481481481" style="fill:#000000;shape-rendering:crispEdges;"></rect><rect class="module" x="123.25925925925925" y="170.66666666666663" width="9.481481481481481" height="9.481481481481481" style="fill:#000000;shape-rendering:crispEdges;"></rect><rect class="module" x="151.7037037037037" y="170.66666666666663" width="9.481481481481481" height="9.481481481481481" style="fill:#000000;shape-rendering:crispEdges;"></rect><rect class="module" x="161.18518518518516" y="170.66666666666663" width="9.481481481481481" height="9.481481481481481" style="fill:#000000;shape-rendering:crispEdges;"></rect><rect class="module" x="199.1111111111111" y="170.66666666666663" width="9.481481481481481" height="9.481481481481481" style="fill:#000000;shape-rendering:crispEdges;"></rect><rect class="module" x="218.07407407407408" y="170.66666666666663" width="9.481481481481481" height="9.481481481481481" style="fill:#000000;shape-rendering:crispEdges;"></rect><rect class="module" x="227.55555555555554" y="170.66666666666663" width="9.481481481481481" height="9.481481481481481" style="fill:#000000;shape-rendering:crispEdges;"></rect><rect class="module" x="94.81481481481481" y="180.14814814814815" width="9.481481481481481" height="9.481481481481481" style="fill:#000000;shape-rendering:crispEdges;"></rect><rect class="module" x="104.29629629629629" y="180.14814814814815" width="9.481481481481481" height="9.481481481481481" style="fill:#000000;shape-rendering:crispEdges;"></rect><rect class="module" x="123.25925925925925" y="180.14814814814815" width="9.481481481481481" height="9.481481481481481" style="fill:#000000;shape-rendering:crispEdges;"></rect><rect class="module" x="132.74074074074073" y="180.14814814814815" width="9.481481481481481" height="9.481481481481481" style="fill:#000000;shape-rendering:crispEdges;"></rect><rect class="module" x="161.18518518518516" y="180.14814814814815" width="9.481481481481481" height="9.481481481481481" style="fill:#000000;shape-rendering:crispEdges;"></rect><rect class="module" x="180.14814814814815" y="180.14814814814815" width="9.481481481481481" height="9.481481481481481" style="fill:#000000;shape-rendering:crispEdges;"></rect><rect class="module" x="199.1111111111111" y="180.14814814814815" width="9.481481481481481" height="9.481481481481481" style="fill:#000000;shape-rendering:crispEdges;"></rect><rect class="module" x="142.22222222222223" y="189.62962962962962" width="9.481481481481481" height="9.481481481481481" style="fill:#000000;shape-rendering:crispEdges;"></rect><rect class="module" x="161.18518518518516" y="189.62962962962962" width="9.481481481481481" height="9.481481481481481" style="fill:#000000;shape-rendering:crispEdges;"></rect><rect class="module" x="199.1111111111111" y="189.62962962962962" width="9.481481481481481" height="9.481481481481481" style="fill:#000000;shape-rendering:crispEdges;"></rect><rect class="module" x="208.59259259259255" y="189.62962962962962" width="9.481481481481481" height="9.481481481481481" style="fill:#000000;shape-rendering:crispEdges;"></rect><rect class="module" x="237.037037037037" y="189.62962962962962" width="9.481481481481481" height="9.481481481481481" style="fill:#000000;shape-rendering:crispEdges;"></rect><rect class="module" x="85.33333333333333" y="199.1111111111111" width="9.481481481481481" height="9.481481481481481" style="fill:#000000;shape-rendering:crispEdges;"></rect><rect class="module" x="104.29629629629629" y="199.1111111111111" width="9.481481481481481" height="9.481481481481481" style="fill:#000000;shape-rendering:crispEdges;"></rect><rect class="module" x="151.7037037037037" y="199.1111111111111" width="9.481481481481481" height="9.481481481481481" style="fill:#000000;shape-rendering:crispEdges;"></rect><rect class="module" x="161.18518518518516" y="199.1111111111111" width="9.481481481481481" height="9.481481481481481" style="fill:#000000;shape-rendering:crispEdges;"></rect><rect class="module" x="170.66666666666663" y="199.1111111111111" width="9.481481481481481" height="9.481481481481481" style="fill:#000000;shape-rendering:crispEdges;"></rect><rect class="module" x="180.14814814814815" y="199.1111111111111" width="9.481481481481481" height="9.481481481481481" style="fill:#000000;shape-rendering:crispEdges;"></rect><rect class="module" x="189.62962962962962" y="199.1111111111111" width="9.481481481481481" height="9.481481481481481" style="fill:#000000;shape-rendering:crispEdges;"></rect><rect class="module" x="199.1111111111111" y="199.1111111111111" width="9.481481481481481" height="9.481481481481481" style="fill:#000000;shape-rendering:crispEdges;"></rect><rect class="module" x="208.59259259259255" y="199.1111111111111" width="9.481481481481481" height="9.481481481481481" style="fill:#000000;shape-rendering:crispEdges;"></rect><rect class="module" x="218.07407407407408" y="199.1111111111111" width="9.481481481481481" height="9.481481481481481" style="fill:#000000;shape-rendering:crispEdges;"></rect><rect class="module" x="227.55555555555554" y="199.1111111111111" width="9.481481481481481" height="9.481481481481481" style="fill:#000000;shape-rendering:crispEdges;"></rect><rect class="module" x="123.25925925925925" y="208.59259259259255" width="9.481481481481481" height="9.481481481481481" style="fill:#000000;shape-rendering:crispEdges;"></rect><rect class="module" x="132.74074074074073" y="208.59259259259255" width="9.481481481481481" height="9.481481481481481" style="fill:#000000;shape-rendering:crispEdges;"></rect><rect class="module" x="161.18518518518516" y="208.59259259259255" width="9.481481481481481" height="9.481481481481481" style="fill:#000000;shape-rendering:crispEdges;"></rect><rect class="module" x="170.66666666666663" y="208.59259259259255" width="9.481481481481481" height="9.481481481481481" style="fill:#000000;shape-rendering:crispEdges;"></rect><rect class="module" x="180.14814814814815" y="208.59259259259255" width="9.481481481481481" height="9.481481481481481" style="fill:#000000;shape-rendering:crispEdges;"></rect><rect class="module" x="189.62962962962962" y="208.59259259259255" width="9.481481481481481" height="9.481481481481481" style="fill:#000000;shape-rendering:crispEdges;"></rect><rect class="module" x="199.1111111111111" y="208.59259259259255" width="9.481481481481481" height="9.481481481481481" style="fill:#000000;shape-rendering:crispEdges;"></rect><rect class="module" x="208.59259259259255" y="208.59259259259255" width="9.481481481481481" height="9.481481481481481" style="fill:#000000;shape-rendering:crispEdges;"></rect><rect class="module" x="227.55555555555554" y="208.59259259259255" width="9.481481481481481" height="9.481481481481481" style="fill:#000000;shape-rendering:crispEdges;"></rect><rect class="module" x="104.29629629629629" y="218.07407407407408" width="9.481481481481481" height="9.481481481481481" style="fill:#000000;shape-rendering:crispEdges;"></rect><rect class="module" x="142.22222222222223" y="218.07407407407408" width="9.481481481481481" height="9.481481481481481" style="fill:#000000;shape-rendering:crispEdges;"></rect><rect class="module" x="208.59259259259255" y="218.07407407407408" width="9.481481481481481" height="9.481481481481481" style="fill:#000000;shape-rendering:crispEdges;"></rect><rect class="module" x="85.33333333333333" y="227.55555555555554" width="9.481481481481481" height="9.481481481481481" style="fill:#000000;shape-rendering:crispEdges;"></rect><rect class="module" x="104.29629629629629" y="227.55555555555554" width="9.481481481481481" height="9.481481481481481" style="fill:#000000;shape-rendering:crispEdges;"></rect><rect class="module" x="113.77777777777777" y="227.55555555555554" width="9.481481481481481" height="9.481481481481481" style="fill:#000000;shape-rendering:crispEdges;"></rect><rect class="module" x="123.25925925925925" y="227.55555555555554" width="9.481481481481481" height="9.481481481481481" style="fill:#000000;shape-rendering:crispEdges;"></rect><rect class="module" x="142.22222222222223" y="227.55555555555554" width="9.481481481481481" height="9.481481481481481" style="fill:#000000;shape-rendering:crispEdges;"></rect><rect class="module" x="151.7037037037037" y="227.55555555555554" width="9.481481481481481" height="9.481481481481481" style="fill:#000000;shape-rendering:crispEdges;"></rect><rect class="module" x="170.66666666666663" y="227.55555555555554" width="9.481481481481481" height="9.481481481481481" style="fill:#000000;shape-rendering:crispEdges;"></rect><rect class="module" x="180.14814814814815" y="227.55555555555554" width="9.481481481481481" height="9.481481481481481" style="fill:#000000;shape-rendering:crispEdges;"></rect><rect class="module" x="189.62962962962962" y="227.55555555555554" width="9.481481481481481" height="9.481481481481481" style="fill:#000000;shape-rendering:crispEdges;"></rect><rect class="module" x="199.1111111111111" y="227.55555555555554" width="9.481481481481481" height="9.481481481481481" style="fill:#000000;shape-rendering:crispEdges;"></rect><rect class="module" x="227.55555555555554" y="227.55555555555554" width="9.481481481481481" height="9.481481481481481" style="fill:#000000;shape-rendering:crispEdges;"></rect><rect class="module" x="237.037037037037" y="227.55555555555554" width="9.481481481481481" height="9.481481481481481" style="fill:#000000;shape-rendering:crispEdges;"></rect><rect class="module" x="94.81481481481481" y="237.037037037037" width="9.481481481481481" height="9.481481481481481" style="fill:#000000;shape-rendering:crispEdges;"></rect><rect class="module" x="104.29629629629629" y="237.037037037037" width="9.481481481481481" height="9.481481481481481" style="fill:#000000;shape-rendering:crispEdges;"></rect><rect class="module" x="123.25925925925925" y="237.037037037037" width="9.481481481481481" height="9.481481481481481" style="fill:#000000;shape-rendering:crispEdges;"></rect><rect class="module" x="132.74074074074073" y="237.037037037037" width="9.481481481481481" height="9.481481481481481" style="fill:#000000;shape-rendering:crispEdges;"></rect><rect class="module" x="142.22222222222223" y="237.037037037037" width="9.481481481481481" height="9.481481481481481" style="fill:#000000;shape-rendering:crispEdges;"></rect><rect class="module" x="170.66666666666663" y="237.037037037037" width="9.481481481481481" height="9.481481481481481" style="fill:#000000;shape-rendering:crispEdges;"></rect><rect class="module" x="180.14814814814815" y="237.037037037037" width="9.481481481481481" height="9.481481481481481" style="fill:#000000;shape-rendering:crispEdges;"></rect><rect class="module" x="189.62962962962962" y="237.037037037037" width="9.481481481481481" height="9.481481481481481" style="fill:#000000;shape-rendering:crispEdges;"></rect><rect class="module" x="199.1111111111111" y="237.037037037037" width="9.481481481481481" height="9.481481481481481" style="fill:#000000;shape-rendering:crispEdges;"></rect><rect class="module" x="218.07407407407408" y="237.037037037037" width="9.481481481481481" height="9.481481481481481" style="fill:#000000;shape-rendering:crispEdges;"></rect><rect class="module" x="237.037037037037" y="237.037037037037" width="9.481481481481481" height="9.481481481481481" style="fill:#000000;shape-rendering:crispEdges;"></rect></svg>