<svg xmlns="http://www.w3.org/2000/svg" version="1.1" width="256" height="256"><rect x="0" y="0" width="256" height="256" style="fill:#ffffff;shape-rendering:crispEdges;"></rect><g class="anchors"><g data-position="top-left" style="shape-rendering:crispEdges;"><path class="anchor-outer" fill="#000000" transform="scale(11.130434782608695, 11.130434782608695)" d="M1 1 h7 v7 h-7 v-7z m1 1 v5 h5 v-5 h-5 z"></path> <path class="anchor-inner" fill="#000000" transform="scale(11.130434782608695, 11.130434782608695)" d="M3 3 h3 v3 h-3 v-3 z"></path></g><g data-position="top-right" style="shape-rendering:crispEdges;"><path class="anchor-outer" fill="#000000" transform="scale(11.130434782608695, 11.130434782608695)" d="M15 1 h7 v7 h-7 v-7z m1 1 v5 h5 v-5 h-5 z"></path> <path class="anchor-inner" fill="#000000" transform="scale(11.130434782608695, 11.130434782608695)" d="M17 3 h3 v3 h-3 v-3 z"></path></g><g data-position="bottom-left" style="shape-rendering:crispEdges;"><path class="anchor-outer" fill="#000000" transform="scale(11.130434782608695, 11.130434782608695)" d="M1 15 h7 v7 h-7 v-7z m1 1 v5 h5 v-5 h-5 z"></path> <path class="anchor-inner" fill="#000000" transform="scale(11.130434782608695, 11.130434782608695)" d="M3 17 h3 v3 h-3 v-3 z"></path></g></g><rect class="module" x="100.17391304347825" y="11.130434782608695" width="11.130434782608695" height="11.130434782608695" style="fill:#000000;shape-rendering:crispEdges;"></rect><rect class="module" x="111.30434782608694" y="11.130434782608695" width="11.130434782608695" height="11.130434782608695" style="fill:#000000;shape-rendering:crispEdges;"></rect><rect class="module" x="111.30434782608694" y="22.26086956521739" width="11.130434782608695" height="11.130434782608695" style="fill:#000000;shape-rendering:crispEdges;"></rect><rect class="module" x="133.56521739130434" y="22.26086956521739" width="11.130434782608695" height="11.130434782608695" style="fill:#000000;shape-rendering:crispEdges;"></rect><rect class="module" x="111.30434782608694" y="33.391304347826086" width="11.130434782608695" height="11.130434782608695" style="fill:#000000;shape-rendering:crispEdges;"></rect><rect class="module" x="122.43478260869566" y="33.391304347826086" width="11.130434782608695" height="11.130434782608695" style="fill:#000000;shape-rendering:crispEdges;"></rect><rect class="module" x="100.17391304347825" y="44.52173913043478" width="11.130434782608695" height="11.130434782608695" style="fill:#000000;shape-rendering:crispEdges;"></rect><rect class="module" x="111.30434782608694" y="44.52173913043478" width="11.130434782608695" height="11.130434782608695" style="fill:#000000;shape-rendering:crispEdges;"></rect><rect class="module" x="122.43478260869566" y="55.65217391304348" width="11.130434782608695" height="11.130434782608695" style="fill:#000000;shape-rendering:crispEdges;"></rect><rect class="module" x="144.69565217391303" y="55.65217391304348" width="11.130434782608695" height="11.130434782608695" style="fill:#000000;shape-rendering:crispEdges;"></rect><rect class="module" x="100.17391304347825" y="66.78260869565217" width="11.130434782608695" height="11.130434782608695" style="fill:#000000;shape-rendering:crispEdges;"></rect><rect class="module" x="111.30434782608694" y="66.78260869565217" width="11.130434782608695" height="11.130434782608695" style="fill:#000000;shape-rendering:crispEdges;"></rect><rect class="module" x="133.56521739130434" y="66.78260869565217" width="11.130434782608695" height="11.130434782608695" style="fill:#000000;shape-rendering:crispEdges;"></rect><rect class="module" x="100.17391304347825" y="77.91304347826087" width="11.130434782608695" height="11.130434782608695" style="fill:#000000;shape-rendering:crispEdges;"></rect><rect class="module" x="122.43478260869566" y="77.91304347826087" width="11.130434782608695" height="11.130434782608695" style="fill:#000000;shape-rendering:crispEdges;"></rect><rect class="module" x="144.69565217391303" y="77.91304347826087" width="11.130434782608695" height="11.130434782608695" style="fill:#000000;shape-rendering:crispEdges;"></rect><rect class="module" x="122.43478260869566" y="89.04347826086956" width="11.130434782608695" height="11.130434782608695" style="fill:#000000;shape-rendering:crispEdges;"></rect><rect class="module" x="133.56521739130434" y="89.04347826086956" width="11.130434782608695" height="11.130434782608695" style="fill:#000000;shape-rendering:crispEdges;"></rect><rect class="module" x="144.69565217391303" y="89.04347826086956" width="11.130434782608695" height="11.130434782608695" style="fill:#000000;shape-rendering:crispEdges;"></rect><rect class="module" x="66.78260869565217" y="100.17391304347825" width="11.130434782608695" height="11.130434782608695" style="fill:#000000;shape-rendering:crispEdges;"></rect><rect class="module" x="77.91304347826087" y="100.17391304347825" width="11.130434782608695" height="11.130434782608695" style="fill:#000000;shape-rendering:crispEdges;"></rect><rect class="module" x="100.17391304347825" y="100.17391304347825" width="11.130434782608695" height="11.130434782608695" style="fill:#000000;shape-rendering:crispEdges;"></rect><rect class="module" x="122.43478260869566" y="100.17391304347825" width="11.130434782608695" height="11.130434782608695" style="fill:#000000;shape-rendering:crispEdges;"></rect><rect class="module" x="133.56521739130434" y="100.17391304347825" width="11.130434782608695" height="11.130434782608695" style="fill:#000000;shape-rendering:crispEdges;"></rect><rect class="module" x="144.69565217391303" y="100.17391304347825" width="11.130434782608695" height="11.130434782608695" style="fill:#000000;shape-rendering:crispEdges;"></rect><rect class="module" x="155.82608695652172" y="100.17391304347825" width="11.130434782608695" height="11.130434782608695" style="fill:#000000;shape-rendering:crispEdges;"></rect><rect class="module" x="178.08695652173913" y="100.17391304347825" width="11.130434782608695" height="11.130434782608695" style="fill:#000000;shape-rendering:crispEdges;"></rect><rect class="module" x="200.3478260869565" y="100.17391304347825" width="11.130434782608695" height="11.130434782608695" style="fill:#000000;shape-rendering:crispEdges;"></rect><rect class="module" x="233.7391304347826" y="100.17391304347825" width="11.130434782608695" height="11.130434782608695" style="fill:#000000;shape-rendering:crispEdges;"></rect><rect class="module" x="22.26086956521739" y="111.30434782608694" width="11.130434782608695" height="11.130434782608695" style="fill:#000000;shape-rendering:crispEdges;"></rect><rect class="module" x="111.30434782608694" y="111.30434782608694" width="11.130434782608695" height="11.130434782608695" style="fill:#000000;shape-rendering:crispEdges;"></rect><rect class="module" x="133.56521739130434" y="111.30434782608694" width="11.130434782608695" height="11.130434782608695" style="fill:#000000;shape-rendering:crispEdges;"></rect><rect class="module" x="144.69565217391303" y="111.30434782608694" width="11.130434782608695" height="11.130434782608695" style="fill:#000000;shape-rendering:crispEdges;"></rect><rect class="module" x="178.08695652173913" y="111.30434782608694" width="11.130434782608695" height="11.130434782608695" style="fill:#000000;shape-rendering:crispEdges;"></rect><rect class="module" x="189.2173913043478" y="111.30434782608694" width="11.130434782608695" height="11.130434782608695" style="fill:#000000;shape-rendering:crispEdges;"></rect><rect class="module" x="200.3478260869565" y="111.30434782608694" width="11.130434782608695" height="11.130434782608695" style="fill:#000000;shape-rendering:crispEdges;"></rect><rect class="module" x="211.4782608695652" y="111.30434782608694" width="11.130434782608695" height="11.130434782608695" style="fill:#000000;shape-rendering:crispEdges;"></rect><rect class="module" x="33.391304347826086" y="122.43478260869566" width="11.130434782608695" height="11.130434782608695" style="fill:#000000;shape-rendering:crispEdges;"></rect><rect class="module" x="44.52173913043478" y="122.43478260869566" width="11.130434782608695" height="11.130434782608695" style="fill:#000000;shape-rendering:crispEdges;"></rect><rect class="module" x="55.65217391304348" y="122.43478260869566" width="11.130434782608695" height="11.130434782608695" style="fill:#000000;shape-rendering:crispEdges;"></rect><rect class="module" x="77.91304347826087" y="122.43478260869566" width="11.130434782608695" height="11.130434782608695" style="fill:#000000;shape-rendering:crispEdges;"></rect><rect class="module" x="89.04347826086956" y="122.43478260869566" width="11.130434782608695" height="11.130434782608695" style="fill:#000000;shape-rendering:crispEdges;"></rect><rect class="module" x="100.17391304347825" y="122.43478260869566" width="11.130434782608695" height="11.130434782608695" style="fill:#000000;shape-rendering:crispEdges;"></rect><rect class="module" x="111.30434782608694" y="122.43478260869566" width="11.130434782608695" height="11.130434782608695" style="fill:#000000;shape-rendering:crispEdges;"></rect><rect class="module" x="144.69565217391303" y="122.43478260869566" width="11.130434782608695" height="11.130434782608695" style="fill:#000000;shape-rendering:crispEdges;"></rect><rect class="module" x="166.95652173913044" y="122.43478260869566" width="11.130434782608695" height="11.130434782608695" style="fill:#000000;shape-rendering:crispEdges;"></rect><rect class="module" x="178.08695652173913" y="122.43478260869566" width="11.130434782608695" height="11.130434782608695" style="fill:#000000;shape-rendering:crispEdges;"></rect><rect class="module" x="211.4782608695652" y="122.43478260869566" width="11.130434782608695" height="11.130434782608695" style="fill:#000000;shape-rendering:crispEdges;"></rect><rect class="module" x="222.6086956521739" y="122.43478260869566" width="11.130434782608695" height="11.130434782608695" style="fill:#000000;shape-rendering:crispEdges;"></rect><rect class="module" x="233.7391304347826" y="122.43478260869566" width="11.130434782608695" height="11.130434782608695" style="fill:#000000;shape-rendering:crispEdges;"></rect><rect class="module" x="11.130434782608695" y="133.56521739130434" width="11.130434782608695" height="11.130434782608695" style="fill:#000000;shape-rendering:crispEdges;"></rect><rect class="module" x="55.65217391304348" y="133.56521739130434" width="11.130434782608695" height="11.130434782608695" style="fill:#000000;shape-rendering:crispEdges;"></rect><rect class="module" x="100.17391304347825" y="133.56521739130434" width="11.130434782608695" height="11.130434782608695" style="fill:#000000;shape-rendering:crispEdges;"></rect><rect class="module" x="111.30434782608694" y="133.56521739130434" width="11.130434782608695" height="11.130434782608695" style="fill:#000000;shape-rendering:crispEdges;"></rect><rect class="module" x="122.43478260869566" y="133.56521739130434" width="11.130434782608695" height="11.130434782608695" style="fill:#000000;shape-rendering:crispEdges;"></rect><rect class="module" x="144.69565217391303" y="133.56521739130434" width="11.130434782608695" height="11.130434782608695" style="fill:#000000;shape-rendering:crispEdges;"></rect><rect class="module" x="155.82608695652172" y="133.56521739130434" width="11.130434782608695" height="11.130434782608695" style="fill:#000000;shape-rendering:crispEdges;"></rect><rect class="module" x="166.95652173913044" y="133.56521739130434" width="11.130434782608695" height="11.130434782608695" style="fill:#000000;shape-rendering:crispEdges;"></rect><rect class="module" x="222.6086956521739" y="133.56521739130434" width="11.130434782608695" height="11.130434782608695" style="fill:#000000;shape-rendering:crispEdges;"></rect><rect class="module" x="11.130434782608695" y="144.69565217391303" width="11.130434782608695" height="11.130434782608695" style="fill:#000000;shape-rendering:crispEdges;"></rect><rect class="module" x="22.26086956521739" y="144.69565217391303" width="11.130434782608695" height="11.130434782608695" style="fill:#000000;shape-rendering:crispEdges;"></rect><rect class="module" x="33.391304347826086" y="144.69565217391303" width="11.130434782608695" height="11.130434782608695" style="fill:#000000;shape-rendering:crispEdges;"></rect><rect class="module" x="55.65217391304348" y="144.69565217391303" width="11.130434782608695" height="11.130434782608695" style="fill:#000000;shape-rendering:crispEdges;"></rect><rect class="module" x="77.91304347826087" y="144.69565217391303" width="11.130434782608695" height="11.130434782608695" style="fill:#000000;shape-rendering:crispEdges;"></rect><rect class="module" x="100.17391304347825" y="144.69565217391303" width="11.130434782608695" height="11.130434782608695" style="fill:#000000;shape-rendering:crispEdges;"></rect><rect class="module" x="133.56521739130434" y="144.69565217391303" width="11.130434782608695" height="11.130434782608695" style="fill:#000000;shape-rendering:crispEdges;"></rect><rect class="module" x="166.95652173913044" y="144.69565217391303" width="11.130434782608695" height="11.130434782608695" style="fill:#000000;shape-rendering:crispEdges;"></rect><rect class="module" x="189.2173913043478" y="144.69565217391303" width="11.130434782608695" height="11.130434782608695" style="fill:#000000;shape-rendering:crispEdges;"></rect><rect class="module" x="200.3478260869565" y="144.69565217391303" width="11.130434782608695" height="11.130434782608695" style="fill:#000000;shape-rendering:crispEdges;"></rect><rect class="module" x="211.4782608695652" y="144.69565217391303" width="11.130434782608695" height="11.130434782608695" style="fill:#000000;shape-rendering:crispEdges;"></rect><rect class="module" x="233.7391304347826" y="144.69565217391303" width="11.130434782608695" height="11.130434782608695" style="fill:#000000;shape-rendering:crispEdges;"></rect><rect class="module" x="100.17391304347825" y="155.82608695652172" width="11.130434782608695" height="11.130434782608695" style="fill:#000000;shape-rendering:crispEdges;"></rect><rect class="module" x="144.69565217391303" y="155.82608695652172" width="11.130434782608695" height="11.130434782608695" style="fill:#000000;shape-rendering:crispEdges;"></rect><rect class="module" x="189.2173913043478" y="155.82608695652172" width="11.130434782608695" height="11.130434782608695" style="fill:#000000;shape-rendering:crispEdges;"></rect><rect class="module" x="222.6086956521739" y="155.82608695652172" width="11.130434782608695" height="11.130434782608695" style="fill:#000000;shape-rendering:crispEdges;"></rect><rect class="module" x="111.30434782608694" y="166.95652173913044" width="11.130434782608695" height="11.130434782608695" style="fill:#000000;shape-rendering:crispEdges;"></rect><rect class="module" x="133.56521739130434" y="166.95652173913044" width="11.130434782608695" height="11.130434782608695" style="fill:#000000;shape-rendering:crispEdges;"></rect><rect class="module" x="166.95652173913044" y="166.95652173913044" width="11.130434782608695" height="11.130434782608695" style="fill:#000000;shape-rendering:crispEdges;"></rect><rect class="module" x="211.4782608695652" y="166.95652173913044" width="11.130434782608695" height="11.130434782608695" style="fill:#000000;shape-rendering:crispEdges;"></rect><rect class="module" x="233.7391304347826" y="166.95652173913044" width="11.130434782608695" height="11.130434782608695" style="fill:#000000;shape-rendering:crispEdges;"></rect><rect class="module" x="100.17391304347825" y="178.08695652173913" width="11.130434782608695" height="11.130434782608695" style="fill:#000000;shape-rendering:crispEdges;"></rect><rect class="module" x="111.30434782608694" y="178.08695652173913" width="11.130434782608695" height="11.130434782608695" style="fill:#000000;shape-rendering:crispEdges;"></rect><rect class="module" x="122.43478260869566" y="178.08695652173913" width="11.130434782608695" height="11.130434782608695" style="fill:#000000;shape-rendering:crispEdges;"></rect><rect class="module" x="144.69565217391303" y="178.08695652173913" width="11.130434782608695" height="11.130434782608695" style="fill:#000000;shape-rendering:crispEdges;"></rect><rect class="module" x="166.95652173913044" y="178.08695652173913" width="11.130434782608695" height="11.130434782608695" style="fill:#000000;shape-rendering:crispEdges;"></rect><rect class="module" x="178.08695652173913" y="178.08695652173913" width="11.130434782608695" height="11.130434782608695" style="fill:#000000;shape-rendering:crispEdges;"></rect><rect class="module" x="200.3478260869565" y="178.08695652173913" width="11.130434782608695" height="11.130434782608695" style="fill:#000000;shape-rendering:crispEdges;"></rect><rect class="module" x="233.7391304347826" y="178.08695652173913" width="11.130434782608695" height="11.130434782608695" style="fill:#000000;shape-rendering:crispEdges;"></rect><rect class="module" x="111.30434782608694" y="189.2173913043478" width="11.130434782608695" height="11.130434782608695" style="fill:#000000;shape-rendering:crispEdges;"></rect><rect class="module" x="133.56521739130434" y="189.2173913043478" width="11.130434782608695" height="11.130434782608695" style="fill:#000000;shape-rendering:crispEdges;"></rect><rect class="module" x="144.69565217391303" y="189.2173913043478" width="11.130434782608695" height="11.130434782608695" style="fill:#000000;shape-rendering:crispEdges;"></rect><rect class="module" x="166.95652173913044" y="189.2173913043478" width="11.130434782608695" height="11.130434782608695" style="fill:#000000;shape-rendering:crispEdges;"></rect><rect class="module" x="200.3478260869565" y="189.2173913043478" width="11.130434782608695" height="11.130434782608695" style="fill:#000000;shape-rendering:crispEdges;"></rect><rect class="module" x="211.4782608695652" y="189.2173913043478" width="11.130434782608695" height="11.130434782608695" style="fill:#000000;shape-rendering:crispEdges;"></rect><rect class="module" x="122.43478260869566" y="200.3478260869565" width="11.130434782608695" height="11.130434782608695" style="fill:#000000;shape-rendering:crispEdges;"></rect><rect class="module" x="133.56521739130434" y="200.3478260869565" width="11.130434782608695" height="11.130434782608695" style="fill:#000000;shape-rendering:crispEdges;"></rect><rect class="module" x="166.95652173913044" y="200.3478260869565" width="11.130434782608695" height="11.130434782608695" style="fill:#000000;shape-rendering:crispEdges;"></rect><rect class="module" x="200.3478260869565" y="200.3478260869565" width="11.130434782608695" height="11.130434782608695" style="fill:#000000;shape-rendering:crispEdges;"></rect><rect class="module" x="233.7391304347826" y="200.3478260869565" width="11.130434782608695" height="11.130434782608695" style="fill:#000000;shape-rendering:crispEdges;"></rect><rect class="module" x="122.43478260869566" y="211.4782608695652" width="11.130434782608695" height="11.130434782608695" style="fill:#000000;shape-rendering:crispEdges;"></rect><rect class="module" x="155.82608695652172" y="211.4782608695652" width="11.130434782608695" height="11.130434782608695" style="fill:#000000;shape-rendering:crispEdges;"></rect><rect class="module" x="166.95652173913044" y="211.4782608695652" width="11.130434782608695" height="11.130434782608695" style="fill:#000000;shape-rendering:crispEdges;"></rect><rect class="module" x="200.3478260869565" y="211.4782608695652" width="11.130434782608695" height="11.130434782608695" style="fill:#000000;shape-rendering:crispEdges;"></rect><rect class="module" x="211.4782608695652" y="211.4782608695652" width="11.130434782608695" height="11.130434782608695" style="fill:#000000;shape-rendering:crispEdges;"></rect><rect class="module" x="111.30434782608694" y="222.6086956521739" width="11.130434782608695" height="11.130434782608695" style="fill:#000000;shape-rendering:crispEdges;"></rect><rect class="module" x="133.56521739130434" y="222.6086956521739" width="11.130434782608695" height="11.130434782608695" style="fill:#000000;shape-rendering:crispEdges;"></rect><rect class="module" x="166.95652173913044" y="222.6086956521739" width="11.130434782608695" height="11.130434782608695" style="fill:#000000;shape-rendering:crispEdges;"></rect><rect class="module" x="178.08695652173913" y="222.6086956521739" width="11.130434782608695" height="11.130434782608695" style="fill:#000000;shape-rendering:crispEdges;"></rect><rect class="module" x="200.3478260869565" y="222.6086956521739" width="11.130434782608695" height="11.130434782608695" style="fill:#000000;shape-rendering:crispEdges;"></rect><rect class="module" x="233.7391304347826" y="222.6086956521739" width="11.130434782608695" height="11.130434782608695" style="fill:#000000;shape-rendering:crispEdges;"></rect><rect class="module" x="111.30434782608694" y="233.7391304347826" width="11.130434782608695" height="11.130434782608695" style="fill:#000000;shape-rendering:crispEdges;"></rect><rect class="module" x="122.43478260869566" y="233.7391304347826" width="11.130434782608695" height="11.130434782608695" style="fill:#000000;shape-rendering:crispEdges;"></rect><rect class="module" x="133.56521739130434" y="233.7391304347826" width="11.130434782608695" height="11.130434782608695" style="fill:#000000;shape-rendering:crispEdges;"></rect><rect class="module" x="200.3478260869565" y="233.7391304347826" width="11.130434782608695" height="11.130434782608695" style="fill:#000000;shape-rendering:crispEdges;"></rect><rect class="module" x="211.4782608695652" y="233.7391304347826" width="11.130434782608695" height="11.130434782608695" style="fill:#000000;shape-rendering:crispEdges;"></rect></svg>