<svg xmlns="http://www.w3.org/2000/svg" version="1.1" width="256" height="256"><rect x="0" y="0" width="256" height="256" style="fill:#ffffff;shape-rendering:crispEdges;"></rect><g class="anchors"><g data-position="top-left"><path class="anchor-outer" fill="#000000" transform="scale(9.481481481481481, 9.481481481481481)" d="M1.5 1h6s0.5 0 .5 .5v6s0 .5-.5 .5h-6s-.5 0-.5-.5v-6s0-.5 .5-.5zm.75 1s-.25 0-.25 .25v4.5s0 .25 .25 .25h4.5s.25 0 .25-.25v-4.5s0-.25 -.25 -.25h-4.5z"></path> <path class="anchor-inner" fill="#000000" transform="scale(9.481481481481481, 9.481481481481481)" d="M3.5 3 h2 s.5 0 .5 .5 v2 s0 .5-.5 .5 h-2 s-.5 0-.5-.5 v-2 s0-.5 .5-.5 z"></path></g><g data-position="top-right"><path class="anchor-outer" fill="#000000" transform="scale(9.481481481481481, 9.481481481481481)" d="M19.5 1h6s0.5 0 .5 .5v6s0 .5-.5 .5h-6s-.5 0-.5-.5v-6s0-.5 .5-.5zm.75 1s-.25 0-.25 .25v4.5s0 .25 .25 .25h4.5s.25 0 .25-.25v-4.5s0-.25 -.25 -.25h-4.5z"></path> <path class="anchor-inner" fill="#000000" transform="scale(9.481481481481481, 9.481481481481481)" d="M21.5 3 h2 s.5 0 .5 .5 v2 s0 .5-.5 .5 h-2 s-.5 0-.5-.5 v-2 s0-.5 .5-.5 z"></path></g><g data-position="bottom-left"><path class="anchor-outer" fill="#000000" transform="scale(9.481481481481481, 9.481481481481481)" d="M1.5 19h6s0.5 0 .5 .5v6s0 .5-.5 .5h-6s-.5 0-.5-.5v-6s0-.5 .5-.5zm.75 1s-.25 0-.25 .25v4.5s0 .25 .25 .25h4.5s.25 0 .25-.25v-4.5s0-.25 -.25 -.25h-4.5z"></path> <path class="anchor-inner" fill="#000000" transform="scale(9.481481481481481, 9.481481481481481)" d="M3.5 21 h2 s.5 0 .5 .5 v2 s0 .5-.5 .5 h-2 s-.5 0-.5-.5 v-2 s0-.5 .5-.5 z"></path></g></g><circle class="module" cx="90.07407407407408" cy="14.222222222222221" r="4.7407407407407405" style="fill:#000000;"></circle><circle class="module" cx="99.55555555555554" cy="14.222222222222221" r="4.7407407407407405" style="fill:#000000;"></circle><circle class="module" cx="146.96296296296296" cy="14.222222222222221" r="4.7407407407407405" style="fill:#000000;"></circle><circle class="module" cx="165.9259259259259" cy="14.222222222222221" r="4.7407407407407405" style="fill:#000000;"></circle><circle class="module" cx="99.55555555555554" cy="23.703703703703702" r="4.7407407407407405" style="fill:#000000;"></circle><circle class="module" cx="118.5185185185185" cy="23.703703703703702" r="4.7407407407407405" style="fill:#000000;"></circle><circle class="module" cx="156.44444444444443" cy="23.703703703703702" r="4.7407407407407405" style="fill:#000000;"></circle><circle class="module" cx="90.07407407407408" cy="33.18518518518518" r="4.7407407407407405" style="fill:#000000;"></circle><circle class="module" cx="99.55555555555554" cy="33.18518518518518" r="4.7407407407407405" style="fill:#000000;"></circle><circle class="module" cx="109.03703703703704" cy="33.18518518518518" r="4.7407407407407405" style="fill:#000000;"></circle><circle class="module" cx="118.5185185185185" cy="33.18518518518518" r="4.7407407407407405" style="fill:#000000;"></circle><circle class="module" cx="137.48148148148147" cy="33.18518518518518" r="4.7407407407407405" style="fill:#000000;"></circle><circle class="module" cx="99.55555555555554" cy="42.666666666666664" r="4.7407407407407405" style="fill:#000000;"></circle><circle class="module" cx="109.03703703703704" cy="42.666666666666664" r="4.7407407407407405" style="fill:#000000;"></circle><circle class="module" cx="90.07407407407408" cy="52.148148148148145" r="4.7407407407407405" style="fill:#000000;"></circle><circle class="module" cx="128" cy="52.148148148148145" r="4.7407407407407405" style="fill:#000000;"></circle><circle class="module" cx="137.48148148148147" cy="52.148148148148145" r="4.7407407407407405" style="fill:#000000;"></circle><circle class="module" cx="146.96296296296296" cy="52.148148148148145" r="4.7407407407407405" style="fill:#000000;"></circle><circle class="module" cx="156.44444444444443" cy="52.148148148148145" r="4.7407407407407405" style="fill:#000000;"></circle><circle class="module" cx="118.5185185185185" cy="61.629629629629626" r="4.7407407407407405" style="fill:#000000;"></circle><circle class="module" cx="128" cy="61.629629629629626" r="4.7407407407407405" style="fill:#000000;"></circle><circle class="module" cx="146.96296296296296" cy="61.629629629629626" r="4.7407407407407405" style="fill:#000000;"></circle><circle class="module" cx="156.44444444444443" cy="61.629629629629626" r="4.7407407407407405" style="fill:#000000;"></circle><circle class="module" cx="90.07407407407408" cy="71.11111111111111" r="4.7407407407407405" style="fill:#000000;"></circle><circle class="module" cx="109.03703703703704" cy="71.11111111111111" r="4.7407407407407405" style="fill:#000000;"></circle><circle class="module" cx="128" cy="71.11111111111111" r="4.7407407407407405" style="fill:#000000;"></circle><circle class="module" cx="146.96296296296296" cy="71.11111111111111" r="4.7407407407407405" style="fill:#000000;"></circle><circle class="module" cx="165.9259259259259" cy="71.11111111111111" r="4.7407407407407405" style="fill:#000000;"></circle><circle class="module" cx="99.55555555555554" cy="80.59259259259258" r="4.7407407407407405" style="fill:#000000;"></circle><circle class="module" cx="118.5185185185185" cy="80.59259259259258" r="4.7407407407407405" style="fill:#000000;"></circle><circle class="module" cx="165.9259259259259" cy="80.59259259259258" r="4.7407407407407405" style="fill:#000000;"></circle><circle class="module" cx="23.703703703703702" cy="90.07407407407408" r="4.7407407407407405" style="fill:#000000;"></circle><circle class="module" cx="52.148148148148145" cy="90.07407407407408" r="4.7407407407407405" style="fill:#000000;"></circle><circle class="module" cx="71.11111111111111" cy="90.07407407407408" r="4.7407407407407405" style="fill:#000000;"></circle><circle class="module" cx="109.03703703703704" cy="90.07407407407408" r="4.7407407407407405" style="fill:#000000;"></circle><circle class="module" cx="128" cy="90.07407407407408" r="4.7407407407407405" style="fill:#000000;"></circle><circle class="module" cx="175.40740740740736" cy="90.07407407407408" r="4.7407407407407405" style="fill:#000000;"></circle><circle class="module" cx="203.85185185185182" cy="90.07407407407408" r="4.7407407407407405" style="fill:#000000;"></circle><circle class="module" cx="222.8148148148148" cy="90.07407407407408" r="4.7407407407407405" style="fill:#000000;"></circle><circle class="module" cx="241.77777777777774" cy="90.07407407407408" r="4.7407407407407405" style="fill:#000000;"></circle><circle class="module" cx="23.703703703703702" cy="99.55555555555554" r="4.7407407407407405" style="fill:#000000;"></circle><circle class="module" cx="42.666666666666664" cy="99.55555555555554" r="4.7407407407407405" style="fill:#000000;"></circle><circle class="module" cx="61.629629629629626" cy="99.55555555555554" r="4.7407407407407405" style="fill:#000000;"></circle><circle class="module" cx="80.59259259259258" cy="99.55555555555554" r="4.7407407407407405" style="fill:#000000;"></circle><circle class="module" cx="90.07407407407408" cy="99.55555555555554" r="4.7407407407407405" style="fill:#000000;"></circle><circle class="module" cx="99.55555555555554" cy="99.55555555555554" r="4.7407407407407405" style="fill:#000000;"></circle><circle class="module" cx="109.03703703703704" cy="99.55555555555554" r="4.7407407407407405" style="fill:#000000;"></circle><circle class="module" cx="128" cy="99.55555555555554" r="4.7407407407407405" style="fill:#000000;"></circle><circle class="module" cx="137.48148148148147" cy="99.55555555555554" r="4.7407407407407405" style="fill:#000000;"></circle><circle class="module" cx="156.44444444444443" cy="99.55555555555554" r="4.7407407407407405" style="fill:#000000;"></circle><circle class="module" cx="165.9259259259259" cy="99.55555555555554" r="4.7407407407407405" style="fill:#000000;"></circle><circle class="module" cx="175.40740740740736" cy="99.55555555555554" r="4.7407407407407405" style="fill:#000000;"></circle><circle class="module" cx="184.88888888888889" cy="99.55555555555554" r="4.7407407407407405" style="fill:#000000;"></circle><circle class="module" cx="194.37037037037035" cy="99.55555555555554" r="4.7407407407407405" style="fill:#000000;"></circle><circle class="module" cx="232.29629629629628" cy="99.55555555555554" r="4.7407407407407405" style="fill:#000000;"></circle><circle class="module" cx="14.222222222222221" cy="109.03703703703704" r="4.7407407407407405" style="fill:#000000;"></circle><circle class="module" cx="23.703703703703702" cy="109.03703703703704" r="4.7407407407407405" style="fill:#000000;"></circle><circle class="module" cx="33.18518518518518" cy="109.03703703703704" r="4.7407407407407405" style="fill:#000000;"></circle><circle class="module" cx="61.629629629629626" cy="109.03703703703704" r="4.7407407407407405" style="fill:#000000;"></circle><circle class="module" cx="71.11111111111111" cy="109.03703703703704" r="4.7407407407407405" style="fill:#000000;"></circle><circle class="module" cx="90.07407407407408" cy="109.03703703703704" r="4.7407407407407405" style="fill:#000000;"></circle><circle class="module" cx="99.55555555555554" cy="109.03703703703704" r="4.7407407407407405" style="fill:#000000;"></circle><circle class="module" cx="128" cy="109.03703703703704" r="4.7407407407407405" style="fill:#000000;"></circle><circle class="module" cx="137.48148148148147" cy="109.03703703703704" r="4.7407407407407405" style="fill:#000000;"></circle><circle class="module" cx="165.9259259259259" cy="109.03703703703704" r="4.7407407407407405" style="fill:#000000;"></circle><circle class="module" cx="184.88888888888889" cy="109.03703703703704" r="4.7407407407407405" style="fill:#000000;"></circle><circle class="module" cx="194.37037037037035" cy="109.03703703703704" r="4.7407407407407405" style="fill:#000000;"></circle><circle class="module" cx="33.18518518518518" cy="118.5185185185185" r="4.7407407407407405" style="fill:#000000;"></circle><circle class="module" cx="52.148148148148145" cy="118.5185185185185" r="4.7407407407407405" style="fill:#000000;"></circle><circle class="module" cx="61.629629629629626" cy="118.5185185185185" r="4.7407407407407405" style="fill:#000000;"></circle><circle class="module" cx="118.5185185185185" cy="118.5185185185185" r="4.7407407407407405" style="fill:#000000;"></circle><circle class="module" cx="128" cy="118.5185185185185" r="4.7407407407407405" style="fill:#000000;"></circle><circle class="module" cx="137.48148148148147" cy="118.5185185185185" r="4.7407407407407405" style="fill:#000000;"></circle><circle class="module" cx="156.44444444444443" cy="118.5185185185185" r="4.7407407407407405" style="fill:#000000;"></circle><circle class="module" cx="175.40740740740736" cy="118.5185185185185" r="4.7407407407407405" style="fill:#000000;"></circle><circle class="module" cx="184.88888888888889" cy="118.5185185185185" r="4.7407407407407405" style="fill:#000000;"></circle><circle class="module" cx="203.85185185185182" cy="118.5185185185185" r="4.7407407407407405" style="fill:#000000;"></circle><circle class="module" cx="213.3333333333333" cy="118.5185185185185" r="4.7407407407407405" style="fill:#000000;"></circle><circle class="module" cx="232.29629629629628" cy="118.5185185185185" r="4.7407407407407405" style="fill:#000000;"></circle><circle class="module" cx="14.222222222222221" cy="128" r="4.7407407407407405" style="fill:#000000;"></circle><circle class="module" cx="23.703703703703702" cy="128" r="4.7407407407407405" style="fill:#000000;"></circle><circle class="module" cx="52.148148148148145" cy="128" r="4.7407407407407405" style="fill:#000000;"></circle><circle class="module" cx="71.11111111111111" cy="128" r="4.7407407407407405" style="fill:#000000;"></circle><circle class="module" cx="165.9259259259259" cy="128" r="4.7407407407407405" style="fill:#000000;"></circle><circle class="module" cx="175.40740740740736" cy="128" r="4.7407407407407405" style="fill:#000000;"></circle><circle class="module" cx="184.88888888888889" cy="128" r="4.7407407407407405" style="fill:#000000;"></circle><circle class="module" cx="194.37037037037035" cy="128" r="4.7407407407407405" style="fill:#000000;"></circle><circle class="module" cx="241.77777777777774" cy="128" r="4.7407407407407405" style="fill:#000000;"></circle><circle class="module" cx="23.703703703703702" cy="137.48148148148147" r="4.7407407407407405" style="fill:#000000;"></circle><circle class="module" cx="52.148148148148145" cy="137.48148148148147" r="4.7407407407407405" style="fill:#000000;"></circle><circle class="module" cx="80.59259259259258" cy="137.48148148148147" r="4.7407407407407405" style="fill:#000000;"></circle><circle class="module" cx="90.07407407407408" cy="137.48148148148147" r="4.7407407407407405" style="fill:#000000;"></circle><circle class="module" cx="99.55555555555554" cy="137.48148148148147" r="4.7407407407407405" style="fill:#000000;"></circle><circle class="module" cx="109.03703703703704" cy="137.48148148148147" r="4.7407407407407405" style="fill:#000000;"></circle><circle class="module" cx="118.5185185185185" cy="137.48148148148147" r="4.7407407407407405" style="fill:#000000;"></circle><circle class="module" cx="128" cy="137.48148148148147" r="4.7407407407407405" style="fill:#000000;"></circle><circle class="module" cx="146.96296296296296" cy="137.48148148148147" r="4.7407407407407405" style="fill:#000000;"></circle><circle class="module" cx="156.44444444444443" cy="137.48148148148147" r="4.7407407407407405" style="fill:#000000;"></circle><circle class="module" cx="165.9259259259259" cy="137.48148148148147" r="4.7407407407407405" style="fill:#000000;"></circle><circle class="module" cx="194.37037037037035" cy="137.48148148148147" r="4.7407407407407405" style="fill:#000000;"></circle><circle class="module" cx="222.8148148148148" cy="137.48148148148147" r="4.7407407407407405" style="fill:#000000;"></circle><circle class="module" cx="14.222222222222221" cy="146.96296296296296" r="4.7407407407407405" style="fill:#000000;"></circle><circle class="module" cx="23.703703703703702" cy="146.96296296296296" r="4.7407407407407405" style="fill:#000000;"></circle><circle class="module" cx="52.148148148148145" cy="146.96296296296296" r="4.7407407407407405" style="fill:#000000;"></circle><circle class="module" cx="61.629629629629626" cy="146.96296296296296" r="4.7407407407407405" style="fill:#000000;"></circle><circle class="module" cx="71.11111111111111" cy="146.96296296296296" r="4.7407407407407405" style="fill:#000000;"></circle><circle class="module" cx="109.03703703703704" cy="146.96296296296296" r="4.7407407407407405" style="fill:#000000;"></circle><circle class="module" cx="118.5185185185185" cy="146.96296296296296" r="4.7407407407407405" style="fill:#000000;"></circle><circle class="module" cx="156.44444444444443" cy="146.96296296296296" r="4.7407407407407405" style="fill:#000000;"></circle><circle class="module" cx="194.37037037037035" cy="146.96296296296296" r="4.7407407407407405" style="fill:#000000;"></circle><circle class="module" cx="203.85185185185182" cy="146.96296296296296" r="4.7407407407407405" style="fill:#000000;"></circle><circle class="module" cx="14.222222222222221" cy="156.44444444444443" r="4.7407407407407405" style="fill:#000000;"></circle><circle class="module" cx="23.703703703703702" cy="156.44444444444443" r="4.7407407407407405" style="fill:#000000;"></circle><circle class="module" cx="33.18518518518518" cy="156.44444444444443" r="4.7407407407407405" style="fill:#000000;"></circle><circle class="module" cx="42.666666666666664" cy="156.44444444444443" r="4.7407407407407405" style="fill:#000000;"></circle><circle class="module" cx="52.148148148148145" cy="156.44444444444443" r="4.7407407407407405" style="fill:#000000;"></circle><circle class="module" cx="61.629629629629626" cy="156.44444444444443" r="4.7407407407407405" style="fill:#000000;"></circle><circle class="module" cx="118.5185185185185" cy="156.44444444444443" r="4.7407407407407405" style="fill:#000000;"></circle><circle class="module" cx="184.88888888888889" cy="156.44444444444443" r="4.7407407407407405" style="fill:#000000;"></circle><circle class="module" cx="222.8148148148148" cy="156.44444444444443" r="4.7407407407407405" style="fill:#000000;"></circle><circle class="module" cx="232.29629629629628" cy="156.44444444444443" r="4.7407407407407405" style="fill:#000000;"></circle><circle class="module" cx="241.77777777777774" cy="156.44444444444443" r="4.7407407407407405" style="fill:#000000;"></circle><circle class="module" cx="42.666666666666664" cy="165.9259259259259" r="4.7407407407407405" style="fill:#000000;"></circle><circle class="module" cx="71.11111111111111" cy="165.9259259259259" r="4.7407407407407405" style="fill:#000000;"></circle><circle class="module" cx="99.55555555555554" cy="165.9259259259259" r="4.7407407407407405" style="fill:#000000;"></circle><circle class="module" cx="118.5185185185185" cy="165.9259259259259" r="4.7407407407407405" style="fill:#000000;"></circle><circle class="module" cx="128" cy="165.9259259259259" r="4.7407407407407405" style="fill:#000000;"></circle><circle class="module" cx="137.48148148148147" cy="165.9259259259259" r="4.7407407407407405" style="fill:#000000;"></circle><circle class="module" cx="165.9259259259259" cy="165.9259259259259" r="4.7407407407407405" style="fill:#000000;"></circle><circle class="module" cx="175.40740740740736" cy="165.9259259259259" r="4.7407407407407405" style="fill:#000000;"></circle><circle class="module" cx="184.88888888888889" cy="165.9259259259259" r="4.7407407407407405" style="fill:#000000;"></circle><circle class="module" cx="194.37037037037035" cy="165.9259259259259" r="4.7407407407407405" style="fill:#000000;"></circle><circle class="module" cx="203.85185185185182" cy="165.9259259259259" r="4.7407407407407405" style="fill:#000000;"></circle><circle class="module" cx="222.8148148148148" cy="165.9259259259259" r="4.7407407407407405" style="fill:#000000;"></circle><circle class="module" cx="232.29629629629628" cy="165.9259259259259" r="4.7407407407407405" style="fill:#000000;"></circle><circle class="module" cx="241.77777777777774" cy="165.9259259259259" r="4.7407407407407405" style="fill:#000000;"></circle><circle class="module" cx="109.03703703703704" cy="175.40740740740736" r="4.7407407407407405" style="fill:#000000;"></circle><circle class="module" cx="128" cy="175.40740740740736" r="4.7407407407407405" style="fill:#000000;"></circle><circle class="module" cx="156.44444444444443" cy="175.40740740740736" r="4.7407407407407405" style="fill:#000000;"></circle><circle class="module" cx="165.9259259259259" cy="175.40740740740736" r="4.7407407407407405" style="fill:#000000;"></circle><circle class="module" cx="203.85185185185182" cy="175.40740740740736" r="4.7407407407407405" style="fill:#000000;"></circle><circle class="module" cx="222.8148148148148" cy="175.40740740740736" r="4.7407407407407405" style="fill:#000000;"></circle><circle class="module" cx="232.29629629629628" cy="175.40740740740736" r="4.7407407407407405" style="fill:#000000;"></circle><circle class="module" cx="99.55555555555554" cy="184.88888888888889" r="4.7407407407407405" style="fill:#000000;"></circle><circle class="module" cx="109.03703703703704" cy="184.88888888888889" r="4.7407407407407405" style="fill:#000000;"></circle><circle class="module" cx="128" cy="184.88888888888889" r="4.7407407407407405" style="fill:#000000;"></circle><circle class="module" cx="137.48148148148147" cy="184.88888888888889" r="4.7407407407407405" style="fill:#000000;"></circle><circle class="module" cx="165.9259259259259" cy="184.88888888888889" r="4.7407407407407405" style="fill:#000000;"></circle><circle class="module" cx="184.88888888888889" cy="184.88888888888889" r="4.7407407407407405" style="fill:#000000;"></circle><circle class="module" cx="203.85185185185182" cy="184.88888888888889" r="4.7407407407407405" style="fill:#000000;"></circle><circle class="module" cx="146.96296296296296" cy="194.37037037037035" r="4.7407407407407405" style="fill:#000000;"></circle><circle class="module" cx="165.9259259259259" cy="194.37037037037035" r="4.7407407407407405" style="fill:#000000;"></circle><circle class="module" cx="203.85185185185182" cy="194.37037037037035" r="4.7407407407407405" style="fill:#000000;"></circle><circle class="module" cx="213.3333333333333" cy="194.37037037037035" r="4.7407407407407405" style="fill:#000000;"></circle><circle class="module" cx="241.77777777777774" cy="194.37037037037035" r="4.7407407407407405" style="fill:#000000;"></circle><circle class="module" cx="90.07407407407408" cy="203.85185185185182" r="4.7407407407407405" style="fill:#000000;"></circle><circle class="module" cx="109.03703703703704" cy="203.85185185185182" r="4.7407407407407405" style="fill:#000000;"></circle><circle class="module" cx="156.44444444444443" cy="203.85185185185182" r="4.7407407407407405" style="fill:#000000;"></circle><circle class="module" cx="165.9259259259259" cy="203.85185185185182" r="4.7407407407407405" style="fill:#000000;"></circle><circle class="module" cx="175.40740740740736" cy="203.85185185185182" r="4.7407407407407405" style="fill:#000000;"></circle><circle class="module" cx="184.88888888888889" cy="203.85185185185182" r="4.7407407407407405" style="fill:#000000;"></circle><circle class="module" cx="194.37037037037035" cy="203.85185185185182" r="4.7407407407407405" style="fill:#000000;"></circle><circle class="module" cx="203.85185185185182" cy="203.85185185185182" r="4.7407407407407405" style="fill:#000000;"></circle><circle class="module" cx="213.3333333333333" cy="203.85185185185182" r="4.7407407407407405" style="fill:#000000;"></circle><circle class="module" cx="222.8148148148148" cy="203.85185185185182" r="4.7407407407407405" style="fill:#000000;"></circle><circle class="module" cx="232.29629629629628" cy="203.85185185185182" r="4.7407407407407405" style="fill:#000000;"></circle><circle class="module" cx="128" cy="213.3333333333333" r="4.7407407407407405" style="fill:#000000;"></circle><circle class="module" cx="137.48148148148147" cy="213.3333333333333" r="4.7407407407407405" style="fill:#000000;"></circle><circle class="module" cx="165.9259259259259" cy="213.3333333333333" r="4.7407407407407405" style="fill:#000000;"></circle><circle class="module" cx="175.40740740740736" cy="213.3333333333333" r="4.7407407407407405" style="fill:#000000;"></circle><circle class="module" cx="184.88888888888889" cy="213.3333333333333" r="4.7407407407407405" style="fill:#000000;"></circle><circle class="module" cx="194.37037037037035" cy="213.3333333333333" r="4.7407407407407405" style="fill:#000000;"></circle><circle class="module" cx="203.85185185185182" cy="213.3333333333333" r="4.7407407407407405" style="fill:#000000;"></circle><circle class="module" cx="213.3333333333333" cy="213.3333333333333" r="4.7407407407407405" style="fill:#000000;"></circle><circle class="module" cx="232.29629629629628" cy="213.3333333333333" r="4.7407407407407405" style="fill:#000000;"></circle><circle class="module" cx="109.03703703703704" cy="222.8148148148148" r="4.7407407407407405" style="fill:#000000;"></circle><circle class="module" cx="146.96296296296296" cy="222.8148148148148" r="4.7407407407407405" style="fill:#000000;"></circle><circle class="module" cx="213.3333333333333" cy="222.8148148148148" r="4.7407407407407405" style="fill:#000000;"></circle><circle class="module" cx="90.07407407407408" cy="232.29629629629628" r="4.7407407407407405" style="fill:#000000;"></circle><circle class="module" cx="109.03703703703704" cy="232.29629629629628" r="4.7407407407407405" style="fill:#000000;"></circle><circle class="module" cx="118.5185185185185" cy="232.29629629629628" r="4.7407407407407405" style="fill:#000000;"></circle><circle class="module" cx="128" cy="232.29629629629628" r="4.7407407407407405" style="fill:#000000;"></circle><circle class="module" cx="146.96296296296296" cy="232.29629629629628" r="4.7407407407407405" style="fill:#000000;"></circle><circle class="module" cx="156.44444444444443" cy="232.29629629629628" r="4.7407407407407405" style="fill:#000000;"></circle><circle class="module" cx="175.40740740740736" cy="232.29629629629628" r="4.7407407407407405" style="fill:#000000;"></circle><circle class="module" cx="184.88888888888889" cy="232.29629629629628" r="4.7407407407407405" style="fill:#000000;"></circle><circle class="module" cx="194.37037037037035" cy="232.29629629629628" r="4.7407407407407405" style="fill:#000000;"></circle><circle class="module" cx="203.85185185185182" cy="232.29629629629628" r="4.7407407407407405" style="fill:#000000;"></circle><circle class="module" cx="232.29629629629628" cy="232.29629629629628" r="4.7407407407407405" style="fill:#000000;"></circle><circle class="module" cx="241.77777777777774" cy="232.29629629629628" r="4.7407407407407405" style="fill:#000000;"></circle><circle class="module" cx="99.55555555555554" cy="241.77777777777774" r="4.7407407407407405" style="fill:#000000;"></circle><circle class="module" cx="109.03703703703704" cy="241.77777777777774" r="4.7407407407407405" style="fill:#000000;"></circle><circle class="module" cx="128" cy="241.77777777777774" r="4.7407407407407405" style="fill:#000000;"></circle><circle class="module" cx="137.48148148148147" cy="241.77777777777774" r="4.7407407407407405" style="fill:#000000;"></circle><circle class="module" cx="146.96296296296296" cy="241.77777777777774" r="4.7407407407407405" style="fill:#000000;"></circle><circle class="module" cx="175.40740740740736" cy="241.77777777777774" r="4.7407407407407405" style="fill:#000000;"></circle><circle class="module" cx="184.88888888888889" cy="241.77777777777774" r="4.7407407407407405" style="fill:#000000;"></circle><circle class="module" cx="194.37037037037035" cy="241.77777777777774" r="4.7407407407407405" style="fill:#000000;"></circle><circle class="module" cx="203.85185185185182" cy="241.77777777777774" r="4.7407407407407405" style="fill:#000000;"></circle><circle class="module" cx="222.8148148148148" cy="241.77777777777774" r="4.7407407407407405" style="fill:#000000;"></circle><circle class="module" cx="241.77777777777774" cy="241.77777777777774" r="4.7407407407407405" style="fill:#000000;"></circle></svg>